<svg width="18" height="14" viewBox="0 0 18 14" fill="none" xmlns="http://www.w3.org/2000/svg">
<path d="M4 5C3.44688 5 3 4.55312 3 4C3 3.44688 3.44688 3 4 3C4.55312 3 5 3.44688 5 4C5 4.55312 4.55312 5 4 5ZM6.25 4C6.25 3.58437 6.58437 3.25 7 3.25H14C14.4156 3.25 14.75 3.58437 14.75 4C14.75 4.41563 14.4156 4.75 14 4.75H7C6.58437 4.75 6.25 4.41563 6.25 4ZM6.25 7C6.25 6.58437 6.58437 6.25 7 6.25H14C14.4156 6.25 14.75 6.58437 14.75 7C14.75 7.41563 14.4156 7.75 14 7.75H7C6.58437 7.75 6.25 7.41563 6.25 7ZM6.25 10C6.25 9.58438 6.58437 9.25 7 9.25H14C14.4156 9.25 14.75 9.58438 14.75 10C14.75 10.4156 14.4156 10.75 14 10.75H7C6.58437 10.75 6.25 10.4156 6.25 10ZM4 6C4.55312 6 5 6.44688 5 7C5 7.55312 4.55312 8 4 8C3.44688 8 3 7.55312 3 7C3 6.44688 3.44688 6 4 6ZM4 11C3.44688 11 3 10.5531 3 10C3 9.44687 3.44688 9 4 9C4.55312 9 5 9.44687 5 10C5 10.5531 4.55312 11 4 11ZM0 2C0 0.895313 0.895313 0 2 0H16C17.1031 0 18 0.895313 18 2V12C18 13.1031 17.1031 14 16 14H2C0.895313 14 0 13.1031 0 12V2ZM1.5 2V12C1.5 12.275 1.72375 12.5 2 12.5H16C16.275 12.5 16.5 12.275 16.5 12V2C16.5 1.72375 16.275 1.5 16 1.5H2C1.72375 1.5 1.5 1.72375 1.5 2Z" fill="white"/>
</svg>
