<svg width="250" height="70" viewBox="0 0 250 70" fill="none" xmlns="http://www.w3.org/2000/svg">
    <g clip-path="url(#clip0_115_108)">
        <path d="M189.623 20.2607C189.624 22.704 190.597 25.0471 192.331 26.7747C194.064 28.5023 196.415 29.4729 198.866 29.4729V29.4729H230.9C241.45 29.4729 250.002 38.4084 250.002 49.4324C250.002 60.4563 241.454 69.3889 230.909 69.3929H178.537V58.3337H230.909V58.5087C233.248 58.3978 235.455 57.3934 237.071 55.7041C238.687 54.0147 239.588 51.7701 239.588 49.4358C239.588 47.1015 238.687 44.8569 237.071 43.1675C235.455 41.4782 233.248 40.4739 230.909 40.3629V40.5262H197.021V40.4401C191.97 39.9814 187.273 37.6568 183.853 33.9228C180.432 30.1889 178.536 25.3154 178.536 20.2592C178.536 15.203 180.432 10.3295 183.853 6.59557C187.273 2.86163 191.97 0.53704 197.021 0.0782507V-0.00974195H248.775V11.0484H198.757C196.325 11.0757 194.001 12.0585 192.291 13.7833C190.581 15.508 189.622 17.8356 189.623 20.2607V20.2607ZM169.04 51.5824C168.721 56.41 166.573 60.9362 163.03 64.2431C159.487 67.55 154.815 69.39 149.962 69.39C145.108 69.39 140.436 67.55 136.893 64.2431C133.351 60.9362 131.202 56.41 130.884 51.5824L130.861 51.5766V17.8026C130.838 15.7003 129.984 13.6919 128.484 12.2135C126.984 10.735 124.96 9.90582 122.851 9.90582C120.742 9.90582 118.718 10.735 117.218 12.2135C115.718 13.6919 114.864 15.7003 114.841 17.8026V17.8026V70.0137H103.757V17.7948H103.777C104.092 12.9646 106.239 8.43482 109.782 5.12495C113.325 1.81509 117.999 -0.0267944 122.855 -0.0267944C127.711 -0.0267944 132.385 1.81509 135.928 5.12495C139.472 8.43482 141.618 12.9646 141.933 17.7948H141.953V51.5726V51.5785C141.976 53.6809 142.83 55.6892 144.33 57.1677C145.83 58.6461 147.854 59.4753 149.963 59.4753C152.072 59.4753 154.097 58.6461 155.596 57.1677C157.096 55.6892 157.95 53.6809 157.973 51.5785V51.5726V-0.00974195H169.071V51.5766L169.04 51.5824ZM81.3408 17.8026C81.3525 16.7468 81.154 15.6991 80.7568 14.7202C80.3596 13.7413 79.7715 12.8507 79.0266 12.0999C78.2817 11.3492 77.3948 10.7531 76.4172 10.3463C75.4396 9.93955 74.3908 9.73009 73.3315 9.73009C72.2722 9.73009 71.2234 9.93955 70.2458 10.3463C69.2683 10.7531 68.3814 11.3492 67.6365 12.0999C66.8916 12.8507 66.3035 13.7413 65.9062 14.7202C65.509 15.6991 65.3105 16.7468 65.3222 17.8026V17.8026V51.5824H65.2986C64.9839 56.4126 62.8369 60.9424 59.2938 64.2523C55.7506 67.5622 51.0766 69.404 46.2207 69.404C41.3648 69.404 36.6908 67.5622 33.1476 64.2523C29.6044 60.9424 27.4575 56.4126 27.1427 51.5824H27.1152V17.8026C27.0919 15.7003 26.2377 13.6919 24.738 12.2135C23.2383 10.735 21.2142 9.90582 19.1049 9.90582C16.9957 9.90582 14.9716 10.735 13.4719 12.2135C11.9722 13.6919 11.118 15.7003 11.0946 17.8026V70.0059H0.00585938V17.8026H0.0294024C0.344201 12.9724 2.4911 8.44263 6.0343 5.13277C9.5775 1.8229 14.2515 -0.0189768 19.1074 -0.0189768C23.9633 -0.0189768 28.6373 1.8229 32.1805 5.13277C35.7237 8.44263 37.8706 12.9724 38.1854 17.8026H38.2099V51.5824C38.2099 53.7 39.0538 55.7308 40.5559 57.2281C42.058 58.7254 44.0953 59.5666 46.2197 59.5666C48.344 59.5666 50.3814 58.7254 51.8835 57.2281C53.3856 55.7308 54.2295 53.7 54.2295 51.5824V17.8026H54.254C54.5688 12.9724 56.7157 8.44263 60.2589 5.13277C63.8021 1.8229 68.4761 -0.0189768 73.332 -0.0189768C78.1879 -0.0189768 82.8619 1.8229 86.4051 5.13277C89.9483 8.44263 92.0952 12.9724 92.41 17.8026H92.4335V70.0059H81.3408V17.8026V17.8026Z"
              fill="url(#paint0_linear_115_108)"/>
    </g>
    <defs>
        <linearGradient id="paint0_linear_115_108" x1="0.00585938" y1="-0.0267944" x2="250.002" y2="-0.0267944"
                        gradientUnits="userSpaceOnUse">
            <stop stop-color="#FF7001"/>
            <stop offset="1" stop-color="#FF5B31"/>
        </linearGradient>
        <clipPath id="clip0_115_108">
            <rect width="250" height="70" fill="white"/>
        </clipPath>
    </defs>
</svg>
